<svg width="377" height="540" viewBox="0 0 377 540" fill="none" xmlns="http://www.w3.org/2000/svg">
<path d="M50.6597 252.1H94.2197V257.68H56.8697V279.19H78.9197C81.7397 279.19 84.3197 279.61 86.6597 280.45C88.9997 281.23 91.0097 282.4 92.6897 283.96C94.3697 285.52 95.6597 287.44 96.5597 289.72C97.5197 292 97.9997 294.58 97.9997 297.46C97.9997 300.34 97.5197 302.92 96.5597 305.2C95.6597 307.48 94.3697 309.43 92.6897 311.05C91.0697 312.67 89.0897 313.9 86.7497 314.74C84.4097 315.58 81.8297 316 79.0097 316H50.6597V252.1ZM79.0097 310.51C81.1697 310.51 83.0297 310.18 84.5897 309.52C86.2097 308.86 87.5297 307.96 88.5497 306.82C89.6297 305.62 90.4097 304.24 90.8897 302.68C91.4297 301.06 91.6997 299.32 91.6997 297.46C91.6997 295.6 91.4597 293.89 90.9797 292.33C90.4997 290.77 89.7497 289.42 88.7297 288.28C87.7097 287.14 86.3897 286.27 84.7697 285.67C83.1497 285.01 81.1997 284.68 78.9197 284.68H56.8697V310.51H79.0097ZM135.109 316.45C130.669 316.45 126.589 315.55 122.869 313.75C119.209 311.89 116.059 309.46 113.419 306.46C110.779 303.4 108.739 299.92 107.299 296.02C105.859 292.12 105.139 288.13 105.139 284.05C105.139 279.79 105.889 275.71 107.389 271.81C108.949 267.91 111.079 264.46 113.779 261.46C116.479 258.46 119.659 256.09 123.319 254.35C126.979 252.55 130.939 251.65 135.199 251.65C139.639 251.65 143.689 252.61 147.349 254.53C151.069 256.39 154.219 258.85 156.799 261.91C159.439 264.97 161.479 268.45 162.919 272.35C164.359 276.19 165.079 280.12 165.079 284.14C165.079 288.4 164.299 292.48 162.739 296.38C161.239 300.28 159.139 303.73 156.439 306.73C153.799 309.67 150.649 312.04 146.989 313.84C143.329 315.58 139.369 316.45 135.109 316.45ZM111.439 284.05C111.439 287.53 112.009 290.89 113.149 294.13C114.289 297.31 115.909 300.16 118.009 302.68C120.109 305.14 122.599 307.12 125.479 308.62C128.359 310.06 131.569 310.78 135.109 310.78C138.709 310.78 141.979 310 144.919 308.44C147.859 306.88 150.349 304.84 152.389 302.32C154.429 299.8 155.989 296.95 157.069 293.77C158.209 290.59 158.779 287.35 158.779 284.05C158.779 280.57 158.179 277.24 156.979 274.06C155.839 270.82 154.219 267.97 152.119 265.51C150.019 263.05 147.529 261.1 144.649 259.66C141.769 258.16 138.589 257.41 135.109 257.41C131.509 257.41 128.239 258.19 125.299 259.75C122.359 261.25 119.869 263.26 117.829 265.78C115.789 268.3 114.199 271.15 113.059 274.33C111.979 277.51 111.439 280.75 111.439 284.05ZM188.898 269.02C188.178 277.48 187.248 284.71 186.108 290.71C185.028 296.71 183.648 301.63 181.968 305.47C180.348 309.25 178.368 312.04 176.028 313.84C173.748 315.58 171.048 316.45 167.928 316.45L166.848 310.42C168.048 310.36 169.188 310.12 170.268 309.7C171.408 309.28 172.488 308.53 173.508 307.45C174.528 306.31 175.488 304.78 176.388 302.86C177.288 300.88 178.128 298.36 178.908 295.3C179.688 292.18 180.378 288.43 180.978 284.05C181.638 279.67 182.208 274.48 182.688 268.48L184.038 252.1H216.528V316H210.318V257.68H189.798L188.898 269.02ZM275.873 310.42V316H232.943V252.1H275.063V257.68H239.243V280.72H270.473V286.03H239.243V310.42H275.873ZM330.717 310.42V316H287.787V252.1H329.907V257.68H294.087V280.72H325.317V286.03H294.087V310.42H330.717Z" fill="white"/>
<path d="M70.3472 493.36C68.7632 493.36 67.3592 492.964 66.1352 492.172C64.9352 491.356 63.9632 490.336 63.2192 489.112V500.668H60.7712V474.244H62.9672V477.88C63.7352 476.704 64.7312 475.756 65.9552 475.036C67.1792 474.292 68.5112 473.92 69.9512 473.92C71.2472 473.92 72.4352 474.196 73.5152 474.748C74.5952 475.276 75.5312 475.996 76.3232 476.908C77.1152 477.796 77.7272 478.828 78.1592 480.004C78.6152 481.18 78.8432 482.392 78.8432 483.64C78.8432 484.96 78.6392 486.208 78.2312 487.384C77.8232 488.56 77.2352 489.592 76.4672 490.48C75.7232 491.368 74.8232 492.076 73.7672 492.604C72.7352 493.108 71.5952 493.36 70.3472 493.36ZM69.6632 491.2C70.6712 491.2 71.5832 490.984 72.3992 490.552C73.2392 490.12 73.9472 489.556 74.5232 488.86C75.1232 488.14 75.5792 487.336 75.8912 486.448C76.2032 485.536 76.3592 484.6 76.3592 483.64C76.3592 482.632 76.1792 481.672 75.8192 480.76C75.4592 479.848 74.9672 479.044 74.3432 478.348C73.7192 477.652 72.9752 477.1 72.1112 476.692C71.2712 476.284 70.3592 476.08 69.3752 476.08C68.7512 476.08 68.0912 476.212 67.3952 476.476C66.7232 476.716 66.0872 477.052 65.4872 477.484C64.9112 477.892 64.4072 478.384 63.9752 478.96C63.5672 479.512 63.3152 480.1 63.2192 480.724V486.484C63.5072 487.156 63.8672 487.78 64.2992 488.356C64.7552 488.932 65.2592 489.436 65.8112 489.868C66.3872 490.276 66.9992 490.6 67.6472 490.84C68.2952 491.08 68.9672 491.2 69.6632 491.2ZM91.1242 493.36C89.7562 493.36 88.4962 493.108 87.3442 492.604C86.2162 492.076 85.2322 491.368 84.3922 490.48C83.5522 489.568 82.8922 488.524 82.4122 487.348C81.9562 486.172 81.7282 484.912 81.7282 483.568C81.7282 482.248 81.9562 481.012 82.4122 479.86C82.8922 478.684 83.5402 477.664 84.3562 476.8C85.1962 475.912 86.1922 475.216 87.3442 474.712C88.4962 474.184 89.7442 473.92 91.0882 473.92C92.4562 473.92 93.7042 474.184 94.8322 474.712C95.9842 475.216 96.9682 475.912 97.7842 476.8C98.6002 477.688 99.2362 478.708 99.6922 479.86C100.148 481.012 100.376 482.236 100.376 483.532C100.376 483.724 100.376 483.916 100.376 484.108C100.376 484.3 100.364 484.432 100.34 484.504H84.2842C84.3562 485.512 84.5842 486.448 84.9682 487.312C85.3762 488.152 85.8922 488.884 86.5162 489.508C87.1402 490.132 87.8482 490.624 88.6402 490.984C89.4562 491.32 90.3202 491.488 91.2322 491.488C91.8322 491.488 92.4322 491.404 93.0322 491.236C93.6322 491.068 94.1842 490.84 94.6882 490.552C95.1922 490.264 95.6482 489.916 96.0562 489.508C96.4642 489.076 96.7762 488.608 96.9922 488.104L99.1162 488.68C98.8282 489.376 98.4202 490.012 97.8922 490.588C97.3642 491.14 96.7522 491.632 96.0562 492.064C95.3602 492.472 94.5922 492.784 93.7522 493C92.9122 493.24 92.0362 493.36 91.1242 493.36ZM98.0362 482.632C97.9642 481.624 97.7242 480.712 97.3162 479.896C96.9322 479.056 96.4282 478.336 95.8042 477.736C95.2042 477.136 94.4962 476.668 93.6802 476.332C92.8882 475.996 92.0362 475.828 91.1242 475.828C90.2122 475.828 89.3482 475.996 88.5322 476.332C87.7162 476.668 86.9962 477.136 86.3722 477.736C85.7722 478.336 85.2802 479.056 84.8962 479.896C84.5362 480.736 84.3202 481.648 84.2482 482.632H98.0362ZM108.869 493.36C107.981 493.36 107.153 493.216 106.385 492.928C105.641 492.616 104.981 492.196 104.405 491.668C103.853 491.14 103.421 490.528 103.109 489.832C102.797 489.112 102.641 488.344 102.641 487.528C102.641 486.712 102.833 485.956 103.217 485.26C103.601 484.564 104.141 483.964 104.837 483.46C105.533 482.956 106.361 482.572 107.321 482.308C108.281 482.02 109.337 481.876 110.489 481.876C111.449 481.876 112.421 481.96 113.405 482.128C114.389 482.296 115.265 482.536 116.033 482.848V481.156C116.033 479.5 115.565 478.192 114.629 477.232C113.693 476.248 112.397 475.756 110.741 475.756C109.781 475.756 108.797 475.948 107.789 476.332C106.781 476.716 105.761 477.268 104.729 477.988L103.865 476.368C106.289 474.736 108.641 473.92 110.921 473.92C113.273 473.92 115.121 474.58 116.465 475.9C117.809 477.22 118.481 479.044 118.481 481.372V489.832C118.481 490.504 118.781 490.84 119.381 490.84V493C118.973 493.072 118.661 493.108 118.445 493.108C117.821 493.108 117.329 492.952 116.969 492.64C116.633 492.328 116.453 491.896 116.429 491.344L116.357 489.868C115.493 490.996 114.401 491.86 113.081 492.46C111.785 493.06 110.381 493.36 108.869 493.36ZM109.445 491.488C110.717 491.488 111.881 491.248 112.937 490.768C114.017 490.288 114.833 489.652 115.385 488.86C115.601 488.644 115.757 488.416 115.853 488.176C115.973 487.912 116.033 487.672 116.033 487.456V484.396C115.217 484.084 114.365 483.844 113.477 483.676C112.613 483.508 111.725 483.424 110.813 483.424C109.085 483.424 107.681 483.784 106.601 484.504C105.521 485.224 104.981 486.172 104.981 487.348C104.981 487.924 105.089 488.464 105.305 488.968C105.545 489.472 105.857 489.916 106.241 490.3C106.649 490.66 107.129 490.948 107.681 491.164C108.233 491.38 108.821 491.488 109.445 491.488ZM121.321 490.948C121.993 490.9 122.581 490.72 123.085 490.408C123.589 490.072 124.021 489.484 124.381 488.644C124.765 487.78 125.089 486.604 125.353 485.116C125.641 483.628 125.917 481.696 126.181 479.32L126.721 474.244H137.737V493H135.325V476.188H128.989L128.485 480.364C128.173 482.86 127.825 484.924 127.441 486.556C127.057 488.164 126.601 489.46 126.073 490.444C125.569 491.404 124.957 492.088 124.237 492.496C123.517 492.88 122.677 493.096 121.717 493.144L121.321 490.948ZM145.625 489.544L156.821 474.244H158.801V493H156.389V477.988L145.409 493H143.213V474.244H145.625V489.544ZM163.226 476.224C163.898 475.456 164.678 474.88 165.566 474.496C166.478 474.112 167.462 473.92 168.518 473.92C170.174 473.92 171.482 474.328 172.442 475.144C173.402 475.96 173.882 477.052 173.882 478.42C173.882 479.524 173.582 480.448 172.982 481.192C172.406 481.936 171.614 482.392 170.606 482.56C171.95 482.752 173.006 483.304 173.774 484.216C174.542 485.104 174.926 486.22 174.926 487.564C174.926 488.428 174.77 489.22 174.458 489.94C174.146 490.636 173.702 491.236 173.126 491.74C172.55 492.244 171.854 492.64 171.038 492.928C170.222 493.216 169.322 493.36 168.338 493.36C167.042 493.36 165.938 493.132 165.026 492.676C164.114 492.196 163.31 491.512 162.614 490.624L163.982 488.932C164.534 489.7 165.158 490.276 165.854 490.66C166.574 491.02 167.438 491.2 168.446 491.2C169.766 491.2 170.774 490.876 171.47 490.228C172.19 489.556 172.55 488.656 172.55 487.528C172.55 486.28 172.118 485.32 171.254 484.648C170.39 483.976 169.154 483.64 167.546 483.64H166.286V481.732H167.546C168.818 481.732 169.814 481.468 170.534 480.94C171.254 480.388 171.614 479.608 171.614 478.6C171.614 477.76 171.326 477.1 170.75 476.62C170.174 476.14 169.382 475.9 168.374 475.9C167.654 475.9 166.97 476.032 166.322 476.296C165.698 476.56 165.074 477.004 164.45 477.628L163.226 476.224ZM186.993 493.36C185.625 493.36 184.377 493.108 183.249 492.604C182.121 492.076 181.137 491.368 180.297 490.48C179.481 489.592 178.845 488.56 178.389 487.384C177.933 486.208 177.705 484.972 177.705 483.676C177.705 482.356 177.933 481.108 178.389 479.932C178.869 478.756 179.517 477.724 180.333 476.836C181.173 475.948 182.157 475.24 183.285 474.712C184.413 474.184 185.649 473.92 186.993 473.92C188.337 473.92 189.573 474.184 190.701 474.712C191.853 475.24 192.837 475.948 193.653 476.836C194.493 477.724 195.141 478.756 195.597 479.932C196.077 481.108 196.317 482.356 196.317 483.676C196.317 484.972 196.089 486.208 195.633 487.384C195.177 488.56 194.529 489.592 193.689 490.48C192.873 491.368 191.889 492.076 190.737 492.604C189.609 493.108 188.361 493.36 186.993 493.36ZM180.189 483.712C180.189 484.768 180.369 485.752 180.729 486.664C181.089 487.552 181.569 488.344 182.169 489.04C182.793 489.712 183.513 490.24 184.329 490.624C185.169 491.008 186.057 491.2 186.993 491.2C187.929 491.2 188.805 491.008 189.621 490.624C190.461 490.216 191.193 489.676 191.817 489.004C192.441 488.308 192.933 487.504 193.293 486.592C193.653 485.68 193.833 484.696 193.833 483.64C193.833 482.608 193.653 481.636 193.293 480.724C192.933 479.788 192.441 478.984 191.817 478.312C191.193 477.616 190.461 477.076 189.621 476.692C188.805 476.284 187.929 476.08 186.993 476.08C186.057 476.08 185.181 476.284 184.365 476.692C183.549 477.076 182.829 477.616 182.205 478.312C181.581 479.008 181.089 479.824 180.729 480.76C180.369 481.672 180.189 482.656 180.189 483.712ZM209.699 474.244C210.371 474.244 210.983 474.364 211.535 474.604C212.111 474.844 212.603 475.18 213.011 475.612C213.443 476.02 213.767 476.5 213.983 477.052C214.223 477.604 214.343 478.204 214.343 478.852C214.343 479.284 214.283 479.716 214.163 480.148C214.067 480.58 213.911 481 213.695 481.408C213.479 481.792 213.203 482.152 212.867 482.488C212.531 482.8 212.135 483.052 211.679 483.244C212.735 483.532 213.563 484.084 214.163 484.9C214.763 485.716 215.063 486.7 215.063 487.852C215.063 488.62 214.919 489.316 214.631 489.94C214.367 490.564 213.983 491.104 213.479 491.56C212.999 492.016 212.423 492.376 211.751 492.64C211.079 492.88 210.347 493 209.555 493H200.519V474.244H209.699ZM208.727 482.524C209.711 482.524 210.491 482.212 211.067 481.588C211.643 480.964 211.931 480.172 211.931 479.212C211.931 478.372 211.691 477.64 211.211 477.016C210.731 476.392 209.987 476.08 208.979 476.08H202.895V482.524H208.727ZM209.303 491.164C209.807 491.164 210.263 491.068 210.671 490.876C211.103 490.684 211.463 490.432 211.751 490.12C212.039 489.784 212.267 489.412 212.435 489.004C212.603 488.596 212.687 488.164 212.687 487.708C212.687 486.844 212.387 486.076 211.787 485.404C211.211 484.732 210.407 484.396 209.375 484.396H202.895V491.164H209.303ZM223.971 493.36C223.083 493.36 222.255 493.216 221.487 492.928C220.743 492.616 220.083 492.196 219.507 491.668C218.955 491.14 218.523 490.528 218.211 489.832C217.899 489.112 217.743 488.344 217.743 487.528C217.743 486.712 217.935 485.956 218.319 485.26C218.703 484.564 219.243 483.964 219.939 483.46C220.635 482.956 221.463 482.572 222.423 482.308C223.383 482.02 224.439 481.876 225.591 481.876C226.551 481.876 227.523 481.96 228.507 482.128C229.491 482.296 230.367 482.536 231.135 482.848V481.156C231.135 479.5 230.667 478.192 229.731 477.232C228.795 476.248 227.499 475.756 225.843 475.756C224.883 475.756 223.899 475.948 222.891 476.332C221.883 476.716 220.863 477.268 219.831 477.988L218.967 476.368C221.391 474.736 223.743 473.92 226.023 473.92C228.375 473.92 230.223 474.58 231.567 475.9C232.911 477.22 233.583 479.044 233.583 481.372V489.832C233.583 490.504 233.883 490.84 234.483 490.84V493C234.075 493.072 233.763 493.108 233.547 493.108C232.923 493.108 232.431 492.952 232.071 492.64C231.735 492.328 231.555 491.896 231.531 491.344L231.459 489.868C230.595 490.996 229.503 491.86 228.183 492.46C226.887 493.06 225.483 493.36 223.971 493.36ZM224.547 491.488C225.819 491.488 226.983 491.248 228.039 490.768C229.119 490.288 229.935 489.652 230.487 488.86C230.703 488.644 230.859 488.416 230.955 488.176C231.075 487.912 231.135 487.672 231.135 487.456V484.396C230.319 484.084 229.467 483.844 228.579 483.676C227.715 483.508 226.827 483.424 225.915 483.424C224.187 483.424 222.783 483.784 221.703 484.504C220.623 485.224 220.083 486.172 220.083 487.348C220.083 487.924 220.191 488.464 220.407 488.968C220.647 489.472 220.959 489.916 221.343 490.3C221.751 490.66 222.231 490.948 222.783 491.164C223.335 491.38 223.923 491.488 224.547 491.488ZM241.355 482.344H251.867V474.244H254.279V493H251.867V484.396H241.355V493H238.943V474.244H241.355V482.344ZM262.168 482.344H272.68V474.244H275.092V493H272.68V484.396H262.168V493H259.756V474.244H262.168V482.344ZM280.568 474.244H282.98V480.904H287.048C287.912 480.904 288.728 481.036 289.496 481.3C290.264 481.564 290.936 481.948 291.512 482.452C292.088 482.956 292.544 483.592 292.88 484.36C293.216 485.104 293.384 485.968 293.384 486.952C293.384 487.936 293.216 488.812 292.88 489.58C292.544 490.324 292.088 490.948 291.512 491.452C290.936 491.956 290.264 492.34 289.496 492.604C288.728 492.868 287.912 493 287.048 493H280.568V474.244ZM295.724 474.244H298.1V493H295.724V474.244ZM287.048 490.912C288.296 490.912 289.256 490.564 289.928 489.868C290.624 489.148 290.972 488.176 290.972 486.952C290.972 485.728 290.624 484.768 289.928 484.072C289.232 483.352 288.272 482.992 287.048 482.992H282.98V490.912H287.048ZM303.992 474.244L309.608 481.588L309.896 482.128L310.184 481.588L315.8 474.244H318.428L311.264 483.676L318.428 493H315.8L310.184 485.692L309.896 485.188L309.608 485.692L303.992 493H301.364L308.528 483.676L301.364 474.244H303.992ZM120.758 533.36C119.39 533.36 118.142 533.108 117.014 532.604C115.886 532.076 114.902 531.368 114.062 530.48C113.246 529.592 112.61 528.56 112.154 527.384C111.698 526.208 111.47 524.972 111.47 523.676C111.47 522.356 111.698 521.108 112.154 519.932C112.634 518.756 113.282 517.724 114.098 516.836C114.938 515.948 115.922 515.24 117.05 514.712C118.178 514.184 119.414 513.92 120.758 513.92C122.102 513.92 123.338 514.184 124.466 514.712C125.618 515.24 126.602 515.948 127.418 516.836C128.258 517.724 128.906 518.756 129.362 519.932C129.842 521.108 130.082 522.356 130.082 523.676C130.082 524.972 129.854 526.208 129.398 527.384C128.942 528.56 128.294 529.592 127.454 530.48C126.638 531.368 125.654 532.076 124.502 532.604C123.374 533.108 122.126 533.36 120.758 533.36ZM113.954 523.712C113.954 524.768 114.134 525.752 114.494 526.664C114.854 527.552 115.334 528.344 115.934 529.04C116.558 529.712 117.278 530.24 118.094 530.624C118.934 531.008 119.822 531.2 120.758 531.2C121.694 531.2 122.57 531.008 123.386 530.624C124.226 530.216 124.958 529.676 125.582 529.004C126.206 528.308 126.698 527.504 127.058 526.592C127.418 525.68 127.598 524.696 127.598 523.64C127.598 522.608 127.418 521.636 127.058 520.724C126.698 519.788 126.206 518.984 125.582 518.312C124.958 517.616 124.226 517.076 123.386 516.692C122.57 516.284 121.694 516.08 120.758 516.08C119.822 516.08 118.946 516.284 118.13 516.692C117.314 517.076 116.594 517.616 115.97 518.312C115.346 519.008 114.854 519.824 114.494 520.76C114.134 521.672 113.954 522.656 113.954 523.712ZM143.357 509.78C141.245 510.26 139.565 511.22 138.317 512.66C137.093 514.076 136.325 516.092 136.013 518.708C136.757 517.556 137.681 516.668 138.785 516.044C139.889 515.42 141.161 515.108 142.601 515.108C143.825 515.108 144.941 515.336 145.949 515.792C146.957 516.248 147.821 516.884 148.541 517.7C149.285 518.492 149.849 519.452 150.233 520.58C150.641 521.708 150.845 522.944 150.845 524.288C150.845 525.632 150.641 526.868 150.233 527.996C149.825 529.1 149.237 530.048 148.469 530.84C147.701 531.632 146.765 532.256 145.661 532.712C144.581 533.144 143.357 533.36 141.989 533.36C139.229 533.36 137.129 532.388 135.689 530.444C134.249 528.5 133.529 525.74 133.529 522.164C133.529 519.98 133.745 518.06 134.177 516.404C134.633 514.748 135.269 513.332 136.085 512.156C136.925 510.956 137.945 509.996 139.145 509.276C140.345 508.532 141.701 507.98 143.213 507.62L148.829 506.324L149.297 508.376L143.357 509.78ZM136.049 524.18C136.049 525.188 136.193 526.136 136.481 527.024C136.769 527.888 137.177 528.644 137.705 529.292C138.257 529.916 138.905 530.408 139.649 530.768C140.417 531.128 141.269 531.308 142.205 531.308C143.141 531.308 143.981 531.14 144.725 530.804C145.493 530.444 146.141 529.952 146.669 529.328C147.221 528.704 147.641 527.972 147.929 527.132C148.217 526.268 148.361 525.332 148.361 524.324C148.361 522.188 147.797 520.496 146.669 519.248C145.541 518 144.017 517.376 142.097 517.376C141.209 517.376 140.393 517.532 139.649 517.844C138.905 518.156 138.269 518.612 137.741 519.212C137.213 519.788 136.793 520.496 136.481 521.336C136.193 522.176 136.049 523.124 136.049 524.18ZM160.485 520.904H164.553C165.417 520.904 166.233 521.036 167.001 521.3C167.769 521.564 168.441 521.948 169.017 522.452C169.593 522.956 170.049 523.592 170.385 524.36C170.721 525.104 170.889 525.968 170.889 526.952C170.889 527.936 170.721 528.812 170.385 529.58C170.049 530.324 169.593 530.948 169.017 531.452C168.441 531.956 167.769 532.34 167.001 532.604C166.233 532.868 165.417 533 164.553 533H158.109V516.368H152.061V514.244H160.485V520.904ZM164.553 530.912C165.825 530.912 166.797 530.564 167.469 529.868C168.141 529.148 168.477 528.176 168.477 526.952C168.477 525.728 168.129 524.768 167.433 524.072C166.737 523.352 165.777 522.992 164.553 522.992H160.485V530.912H164.553ZM182.777 533.36C181.409 533.36 180.149 533.108 178.997 532.604C177.869 532.076 176.885 531.368 176.045 530.48C175.205 529.568 174.545 528.524 174.065 527.348C173.609 526.172 173.381 524.912 173.381 523.568C173.381 522.248 173.609 521.012 174.065 519.86C174.545 518.684 175.193 517.664 176.009 516.8C176.849 515.912 177.845 515.216 178.997 514.712C180.149 514.184 181.397 513.92 182.741 513.92C184.109 513.92 185.357 514.184 186.485 514.712C187.637 515.216 188.621 515.912 189.437 516.8C190.253 517.688 190.889 518.708 191.345 519.86C191.801 521.012 192.029 522.236 192.029 523.532C192.029 523.724 192.029 523.916 192.029 524.108C192.029 524.3 192.017 524.432 191.993 524.504H175.937C176.009 525.512 176.237 526.448 176.621 527.312C177.029 528.152 177.545 528.884 178.169 529.508C178.793 530.132 179.501 530.624 180.293 530.984C181.109 531.32 181.973 531.488 182.885 531.488C183.485 531.488 184.085 531.404 184.685 531.236C185.285 531.068 185.837 530.84 186.341 530.552C186.845 530.264 187.301 529.916 187.709 529.508C188.117 529.076 188.429 528.608 188.645 528.104L190.769 528.68C190.481 529.376 190.073 530.012 189.545 530.588C189.017 531.14 188.405 531.632 187.709 532.064C187.013 532.472 186.245 532.784 185.405 533C184.565 533.24 183.689 533.36 182.777 533.36ZM189.689 522.632C189.617 521.624 189.377 520.712 188.969 519.896C188.585 519.056 188.081 518.336 187.457 517.736C186.857 517.136 186.149 516.668 185.333 516.332C184.541 515.996 183.689 515.828 182.777 515.828C181.865 515.828 181.001 515.996 180.185 516.332C179.369 516.668 178.649 517.136 178.025 517.736C177.425 518.336 176.933 519.056 176.549 519.896C176.189 520.736 175.973 521.648 175.901 522.632H189.689ZM206.929 514.244H209.665L202.573 523.316L210.277 533H207.541L200.917 524.432H198.253V533H195.841V514.244H198.253V522.524H200.701L206.929 514.244ZM220.263 533H217.887V516.368H211.299V514.244H226.851V516.368H220.263V533ZM237.372 533.36C236.004 533.36 234.756 533.108 233.628 532.604C232.5 532.076 231.516 531.368 230.676 530.48C229.86 529.592 229.224 528.56 228.768 527.384C228.312 526.208 228.084 524.972 228.084 523.676C228.084 522.356 228.312 521.108 228.768 519.932C229.248 518.756 229.896 517.724 230.712 516.836C231.552 515.948 232.536 515.24 233.664 514.712C234.792 514.184 236.028 513.92 237.372 513.92C238.716 513.92 239.952 514.184 241.08 514.712C242.232 515.24 243.216 515.948 244.032 516.836C244.872 517.724 245.52 518.756 245.976 519.932C246.456 521.108 246.696 522.356 246.696 523.676C246.696 524.972 246.468 526.208 246.012 527.384C245.556 528.56 244.908 529.592 244.068 530.48C243.252 531.368 242.268 532.076 241.116 532.604C239.988 533.108 238.74 533.36 237.372 533.36ZM230.568 523.712C230.568 524.768 230.748 525.752 231.108 526.664C231.468 527.552 231.948 528.344 232.548 529.04C233.172 529.712 233.892 530.24 234.708 530.624C235.548 531.008 236.436 531.2 237.372 531.2C238.308 531.2 239.184 531.008 240 530.624C240.84 530.216 241.572 529.676 242.196 529.004C242.82 528.308 243.312 527.504 243.672 526.592C244.032 525.68 244.212 524.696 244.212 523.64C244.212 522.608 244.032 521.636 243.672 520.724C243.312 519.788 242.82 518.984 242.196 518.312C241.572 517.616 240.84 517.076 240 516.692C239.184 516.284 238.308 516.08 237.372 516.08C236.436 516.08 235.56 516.284 234.744 516.692C233.928 517.076 233.208 517.616 232.584 518.312C231.96 519.008 231.468 519.824 231.108 520.76C230.748 521.672 230.568 522.656 230.568 523.712ZM260.078 514.244C260.75 514.244 261.362 514.364 261.914 514.604C262.49 514.844 262.982 515.18 263.39 515.612C263.822 516.02 264.146 516.5 264.362 517.052C264.602 517.604 264.722 518.204 264.722 518.852C264.722 519.284 264.662 519.716 264.542 520.148C264.446 520.58 264.29 521 264.074 521.408C263.858 521.792 263.582 522.152 263.246 522.488C262.91 522.8 262.514 523.052 262.058 523.244C263.114 523.532 263.942 524.084 264.542 524.9C265.142 525.716 265.442 526.7 265.442 527.852C265.442 528.62 265.298 529.316 265.01 529.94C264.746 530.564 264.362 531.104 263.858 531.56C263.378 532.016 262.802 532.376 262.13 532.64C261.458 532.88 260.726 533 259.934 533H250.898V514.244H260.078ZM259.106 522.524C260.09 522.524 260.87 522.212 261.446 521.588C262.022 520.964 262.31 520.172 262.31 519.212C262.31 518.372 262.07 517.64 261.59 517.016C261.11 516.392 260.366 516.08 259.358 516.08H253.274V522.524H259.106ZM259.682 531.164C260.186 531.164 260.642 531.068 261.05 530.876C261.482 530.684 261.842 530.432 262.13 530.12C262.418 529.784 262.646 529.412 262.814 529.004C262.982 528.596 263.066 528.164 263.066 527.708C263.066 526.844 262.766 526.076 262.166 525.404C261.59 524.732 260.786 524.396 259.754 524.396H253.274V531.164H259.682Z" fill="white"/>
<path d="M89.1147 424C89.1147 420.4 89.3947 417.16 89.9547 414.28C90.5147 411.32 91.4747 408.6 92.8347 406.12C94.2747 403.64 96.1947 401.32 98.5947 399.16C101.075 397 104.195 394.88 107.955 392.8C111.235 391.04 114.115 389.52 116.595 388.24C119.155 386.88 121.275 385.64 122.955 384.52C124.635 383.4 125.915 382.28 126.795 381.16C127.675 379.96 128.115 378.6 128.115 377.08C128.115 374.68 127.155 372.64 125.235 370.96C123.315 369.2 120.555 368.32 116.955 368.32C115.035 368.32 113.275 368.6 111.675 369.16C110.075 369.64 108.555 370.32 107.115 371.2C105.755 372.08 104.475 373.08 103.275 374.2C102.155 375.24 101.115 376.36 100.155 377.56L89.8347 365.68C90.8747 364.56 92.3547 363.36 94.2747 362.08C96.1947 360.72 98.4347 359.48 100.995 358.36C103.635 357.16 106.515 356.2 109.635 355.48C112.835 354.68 116.235 354.28 119.835 354.28C123.915 354.28 127.555 354.8 130.755 355.84C133.955 356.8 136.635 358.2 138.795 360.04C141.035 361.8 142.715 363.96 143.835 366.52C145.035 369 145.635 371.72 145.635 374.68C145.635 377.48 145.115 379.96 144.075 382.12C143.035 384.28 141.715 386.2 140.115 387.88C138.515 389.56 136.755 391.04 134.835 392.32C132.995 393.52 131.195 394.6 129.435 395.56C127.995 396.36 126.355 397.28 124.515 398.32C122.675 399.36 120.835 400.52 118.995 401.8C117.235 403 115.595 404.28 114.075 405.64C112.555 406.92 111.395 408.2 110.595 409.48H146.955V424H89.1147ZM187.089 385.72C191.089 385.72 194.809 386.4 198.249 387.76C201.689 389.04 204.649 390.88 207.129 393.28C209.609 395.68 211.529 398.56 212.889 401.92C214.329 405.28 215.049 409 215.049 413.08C215.049 417.4 214.249 421.32 212.649 424.84C211.129 428.36 208.969 431.36 206.169 433.84C203.369 436.4 200.049 438.36 196.209 439.72C192.369 441.16 188.209 441.88 183.729 441.88C177.489 441.88 171.889 440.56 166.929 437.92C162.049 435.28 158.329 431.68 155.769 427.12L165.009 417.52C167.249 420.64 170.049 423.12 173.409 424.96C176.769 426.8 180.249 427.72 183.849 427.72C188.169 427.72 191.689 426.44 194.409 423.88C197.209 421.24 198.609 417.76 198.609 413.44C198.609 409.28 197.289 405.92 194.649 403.36C192.089 400.8 188.809 399.52 184.809 399.52C182.169 399.52 179.689 400.12 177.369 401.32C175.129 402.52 173.329 404.16 171.969 406.24H157.929C157.929 406 158.089 405.12 158.409 403.6C158.729 402 159.129 400 159.609 397.6C160.089 395.12 160.609 392.4 161.169 389.44C161.729 386.4 162.329 383.32 162.969 380.2C164.409 372.84 166.009 364.6 167.769 355.48H209.769V370.12H179.409L175.929 389.2C176.889 388.16 178.289 387.32 180.129 386.68C182.049 386.04 184.369 385.72 187.089 385.72ZM286.534 388.84C286.534 394.12 285.734 399 284.134 403.48C282.614 407.88 280.454 411.72 277.654 415C274.934 418.2 271.654 420.72 267.814 422.56C264.054 424.32 259.974 425.2 255.574 425.2C251.094 425.2 246.974 424.32 243.214 422.56C239.454 420.72 236.174 418.2 233.374 415C230.654 411.72 228.494 407.88 226.894 403.48C225.374 399 224.614 394.12 224.614 388.84C224.614 383.56 225.374 378.72 226.894 374.32C228.494 369.84 230.654 366 233.374 362.8C236.174 359.52 239.454 356.96 243.214 355.12C246.974 353.28 251.094 352.36 255.574 352.36C259.974 352.36 264.054 353.28 267.814 355.12C271.654 356.96 274.934 359.52 277.654 362.8C280.454 366 282.614 369.84 284.134 374.32C285.734 378.72 286.534 383.56 286.534 388.84ZM270.334 388.84C270.334 385.64 269.974 382.72 269.254 380.08C268.534 377.36 267.494 375.04 266.134 373.12C264.854 371.2 263.294 369.72 261.454 368.68C259.694 367.64 257.734 367.12 255.574 367.12C253.334 367.12 251.294 367.64 249.454 368.68C247.694 369.72 246.134 371.2 244.774 373.12C243.494 375.04 242.494 377.36 241.774 380.08C241.054 382.72 240.694 385.64 240.694 388.84C240.694 392.04 241.054 394.96 241.774 397.6C242.494 400.24 243.494 402.52 244.774 404.44C246.134 406.36 247.694 407.84 249.454 408.88C251.294 409.92 253.334 410.44 255.574 410.44C257.734 410.44 259.694 409.92 261.454 408.88C263.294 407.84 264.854 406.36 266.134 404.44C267.494 402.52 268.534 400.24 269.254 397.6C269.974 394.96 270.334 392.04 270.334 388.84Z" fill="#FCDB5C"/>
<line x1="124" y1="205.5" x2="254" y2="205.5" stroke="white"/>
<path d="M59.2885 146.95C58.9218 151.517 58.4218 155.35 57.7885 158.45C57.1551 161.55 56.2885 164.067 55.1885 166C54.0885 167.9 52.7218 169.267 51.0885 170.1C49.4551 170.933 47.4551 171.35 45.0885 171.35L44.6885 165.15C45.8218 165.05 46.8051 164.767 47.6385 164.3C48.5051 163.833 49.2385 162.917 49.8385 161.55C50.4718 160.183 51.0051 158.233 51.4385 155.7C51.8718 153.133 52.2718 149.733 52.6385 145.5L53.4885 135.5H74.9885V171H68.1385V141.55H59.7385L59.2885 146.95ZM107.405 164.95V171H82.7553V135.5H106.955V141.55H89.6553V150.1H104.605V155.7H89.6553V164.95H107.405ZM139.331 141.55H127.981V171H121.131V141.55H109.781V135.5H139.331V141.55ZM170.95 171.25C168.35 171.25 165.983 170.75 163.85 169.75C161.75 168.717 159.933 167.367 158.4 165.7C156.9 164 155.733 162.067 154.9 159.9C154.066 157.733 153.65 155.517 153.65 153.25C153.65 150.883 154.083 148.617 154.95 146.45C155.85 144.283 157.066 142.367 158.6 140.7C160.166 139.033 162.016 137.717 164.15 136.75C166.283 135.75 168.6 135.25 171.1 135.25C173.666 135.25 176 135.783 178.1 136.85C180.233 137.883 182.05 139.25 183.55 140.95C185.05 142.65 186.216 144.583 187.05 146.75C187.883 148.917 188.3 151.117 188.3 153.35C188.3 155.717 187.866 157.983 187 160.15C186.133 162.283 184.933 164.183 183.4 165.85C181.866 167.483 180.033 168.8 177.9 169.8C175.766 170.767 173.45 171.25 170.95 171.25ZM160.65 153.25C160.65 154.783 160.883 156.267 161.35 157.7C161.816 159.133 162.483 160.4 163.35 161.5C164.25 162.6 165.333 163.483 166.6 164.15C167.9 164.817 169.366 165.15 171 165.15C172.666 165.15 174.133 164.817 175.4 164.15C176.7 163.45 177.783 162.533 178.65 161.4C179.55 160.267 180.216 159 180.65 157.6C181.116 156.167 181.35 154.717 181.35 153.25C181.35 151.717 181.1 150.233 180.6 148.8C180.133 147.367 179.45 146.1 178.55 145C177.683 143.9 176.6 143.033 175.3 142.4C174.033 141.733 172.6 141.4 171 141.4C169.333 141.4 167.85 141.75 166.55 142.45C165.25 143.117 164.166 144.017 163.3 145.15C162.433 146.25 161.766 147.517 161.3 148.95C160.866 150.35 160.65 151.783 160.65 153.25ZM193.693 135.5H222.943V171H216.093V141.55H200.543V171H193.693V135.5ZM230.704 135.5H237.554V148H244.354C246.154 148 247.804 148.25 249.304 148.75C250.838 149.25 252.154 149.983 253.254 150.95C254.354 151.917 255.204 153.117 255.804 154.55C256.404 155.95 256.704 157.567 256.704 159.4C256.704 161.267 256.404 162.917 255.804 164.35C255.204 165.783 254.354 167 253.254 168C252.188 168.967 250.904 169.717 249.404 170.25C247.938 170.75 246.338 171 244.604 171H230.704V135.5ZM261.004 171V135.55H267.904V171H261.004ZM237.554 165.15H243.954C245.888 165.15 247.338 164.633 248.304 163.6C249.271 162.567 249.754 161.15 249.754 159.35C249.754 157.65 249.254 156.267 248.254 155.2C247.254 154.1 245.821 153.55 243.954 153.55H237.554V165.15ZM302.026 141.55H290.676V171H283.826V141.55H272.476V135.5H302.026V141.55ZM313.018 135.5H319.118L332.618 171H325.518L322.218 162.15H309.818L306.568 171H299.468L313.018 135.5ZM320.968 157.3L316.068 143.35L310.968 157.3H320.968Z" fill="white"/>
<path d="M181.795 72.48V87H133.075V72.48H150.115V36.12C149.395 37.08 148.235 38.08 146.635 39.12C145.115 40.08 143.435 41 141.595 41.88C139.755 42.76 137.835 43.48 135.835 44.04C133.915 44.6 132.195 44.88 130.675 44.88V29.88C132.115 29.88 133.875 29.44 135.955 28.56C138.035 27.6 140.075 26.48 142.075 25.2C144.075 23.92 145.795 22.68 147.235 21.48C148.755 20.2 149.715 19.2 150.115 18.48H166.555V72.48H181.795ZM230.411 58.68C235.371 59.56 239.371 61.96 242.411 65.88C245.531 69.72 247.091 74.44 247.091 80.04C247.091 83.8 246.331 87.2 244.811 90.24C243.371 93.28 241.291 95.84 238.571 97.92C235.931 100.08 232.691 101.72 228.851 102.84C225.011 104.04 220.691 104.64 215.891 104.64C209.811 104.64 204.411 103.64 199.691 101.64C195.051 99.72 191.171 96.88 188.051 93.12L197.171 81.72C199.251 84.36 201.731 86.4 204.611 87.84C207.491 89.28 211.091 90 215.411 90C220.291 90 224.011 89.04 226.571 87.12C229.131 85.2 230.411 82.24 230.411 78.24C230.411 74.08 228.931 70.88 225.971 68.64C223.011 66.4 218.531 65.28 212.531 65.28H209.171V53.28H212.891C217.851 53.28 221.691 52.2 224.411 50.04C227.131 47.8 228.491 44.96 228.491 41.52C228.491 38.24 227.371 35.8 225.131 34.2C222.891 32.6 219.971 31.8 216.371 31.8C212.691 31.8 209.371 32.64 206.411 34.32C203.531 36 201.171 38.36 199.331 41.4L189.251 30.12C190.451 28.28 192.051 26.64 194.051 25.2C196.051 23.68 198.291 22.4 200.771 21.36C203.331 20.24 206.091 19.4 209.051 18.84C212.011 18.2 215.051 17.88 218.171 17.88C222.251 17.88 225.971 18.4 229.331 19.44C232.691 20.48 235.571 21.92 237.971 23.76C240.451 25.6 242.331 27.84 243.611 30.48C244.971 33.04 245.651 35.92 245.651 39.12C245.651 41.52 245.291 43.8 244.571 45.96C243.851 48.12 242.811 50.08 241.451 51.84C240.091 53.6 238.451 55.08 236.531 56.28C234.691 57.48 232.651 58.28 230.411 58.68Z" fill="#FCDB5C"/>
</svg>
